HIERARCHY
ROOT Hips
{
  OFFSET 279.157 85.6768 304.565
  CHANNELS 6 Xposition Yposition Zposition Zrotation Xrotation Yrotation
  JOINT LeftUpLeg
  {
    OFFSET 8.64259 1.95398 -2.38835
    CHANNELS 3 Zrotation Xrotation Yrotation
    JOINT LeftLeg
    {
      OFFSET 43.7702 0 0
      CHANNELS 3 Zrotation Xrotation Yrotation
      JOINT LeftFoot
      {
        OFFSET 40.6238 0 0
        CHANNELS 3 Zrotation Xrotation Yrotation
        JOINT LeftToeBase
        {
          OFFSET 12.7242 0 0
          CHANNELS 3 Zrotation Xrotation Yrotation
          End Site
          {
            OFFSET 0 0 0
          }
        }
      }
    }
  }
  JOINT RightUpLeg
  {
    OFFSET -8.2249 1.95398 -2.59336
    CHANNELS 3 Zrotation Xrotation Yrotation
    JOINT RightLeg
    {
      OFFSET 43.5653 0 0
      CHANNELS 3 Zrotation Xrotation Yrotation
      JOINT RightFoot
      {
        OFFSET 40.6238 0 0
        CHANNELS 3 Zrotation Xrotation Yrotation
        JOINT RightToeBase
        {
          OFFSET 12.7242 0 0
          CHANNELS 3 Zrotation Xrotation Yrotation
          End Site
          {
            OFFSET 0 0 0
          }
        }
      }
    }
  }
  JOINT Spine
  {
    OFFSET 0.165834 0.87714 6.61349
    CHANNELS 3 Zrotation Xrotation Yrotation
    JOINT Spine1
    {
      OFFSET 7.38963 1.71661e-005 0
      CHANNELS 3 Zrotation Xrotation Yrotation
      JOINT Spine2
      {
        OFFSET 11.9445 1.14441e-005 0
        CHANNELS 3 Zrotation Xrotation Yrotation
        JOINT Spine3
        {
          OFFSET 14.7254 4.19617e-005 0
          CHANNELS 3 Zrotation Xrotation Yrotation
          JOINT Spine4
          {
            OFFSET 10.9679 0 0
            CHANNELS 3 Zrotation Xrotation Yrotation
            JOINT RightShoulder
            {
              OFFSET 2.46616 -1.6653 3.69651
              CHANNELS 3 Zrotation Xrotation Yrotation
              JOINT RightArm
              {
                OFFSET 13.0012 0 0
                CHANNELS 3 Zrotation Xrotation Yrotation
                JOINT RightForeArm
                {
                  OFFSET 28.7848 1.52588e-005 0
                  CHANNELS 3 Zrotation Xrotation Yrotation
                  JOINT RightHand
                  {
                    OFFSET 26.5688 1.52588e-005 0
                    CHANNELS 3 Zrotation Xrotation Yrotation
                    End Site
                    {
                      OFFSET 0 0 0
                    }
                  }
                }
              }
            }
            JOINT LeftShoulder
            {
              OFFSET 2.38034 -1.29275 -3.7523
              CHANNELS 3 Zrotation Xrotation Yrotation
              JOINT LeftArm
              {
                OFFSET 16.3182 6.10351e-005 0
                CHANNELS 3 Zrotation Xrotation Yrotation
                JOINT LeftForeArm
                {
                  OFFSET 27.0901 0 0
                  CHANNELS 3 Zrotation Xrotation Yrotation
                  JOINT LeftHand
                  {
                    OFFSET 24.5451 1.52588e-005 0
                    CHANNELS 3 Zrotation Xrotation Yrotation
                    End Site
                    {
                      OFFSET 0 0 0
                    }
                  }
                }
              }
            }
            JOINT Neck
            {
              OFFSET 5.0226 -0.0266342 0
              CHANNELS 3 Zrotation Xrotation Yrotation
              JOINT Head
              {
                OFFSET 6.69364 2.86102e-005 0
                CHANNELS 3 Zrotation Xrotation Yrotation
                End Site
                {
                  OFFSET 0 0 0
                }
              }
            }
          }
        }
      }
    }
  }
}
MOTION
Frames:	18
Frame Time:	0.0416667
33.8726 102.975 -324.229 -176.056 -83.8006 -177.333 -173.549 -6.19207 90.9273 -7.45684 5.31797 0.137999 66.1821 5.43762 1.71853 24.805 -7.03793 16.4944 174.255 -3.70653 90.9296 -13.7353 -5.31167 0.425477 68.7484 -4.65989 -0.503384 25.4801 0.488639 4.03889 0.195843 7.53303 -89.9469 11.8077 0.414516 0.0619455 0.136855 0.416835 0.0436273 -22.3987 0.376727 0.183648 -2.3861 0.376735 0.183654 90.23 -32.8336 -105.28 41.9696 -13.5302 -8.78172 -0.0907388 -25.7218 -12.8684 -15.7102 -0.777351 -8.7993 -89.8145 -53.1763 79.6571 -21.6953 14.7003 -12.9038 -1.31805 11.5905 -7.75926 -0.717768 -0.118652 -6.31684 3.40728 -3.45625 -2.34076 -8.39694 -2.9736 -0.795626 
32.7967 102.689 -323.566 -171.03 -82.9411 -173.132 -173.119 -7.23785 90.9511 -7.68747 5.03577 -0.206505 66.4404 7.28511 4.17682 24.5946 -5.55035 11.3418 173.535 -3.84909 90.231 -16.041 -6.109 0.661159 70.6766 -5.09322 -0.125542 24.6084 0.713025 4.29455 0.244855 7.60857 -89.872 11.6566 0.547098 0.198228 -0.0142459 0.555294 0.173943 -22.55 0.462222 0.353487 -2.53736 0.462234 0.35349 88.0982 -32.4993 -109.457 41.6229 -14.0841 -7.29417 4.03087 -30.0262 -12.6421 -26.916 -1.33898 -5.89669 -89.8293 -54.8315 79.9611 -20.7865 11.175 -10.7284 0.350611 11.2391 -8.08928 -4.95413 0.0787398 -11.9419 1.97444 -3.02459 -1.07489 -7.66339 -2.77778 -0.934646 
31.5291 102.17 -322.824 -175.25 -82.6413 -177.739 -172.134 -5.54871 92.7615 -12.0309 5.91721 -0.444201 66.9913 8.62607 4.07103 26.5655 -4.53417 12.4741 173.48 -3.53335 90.5196 -18.7224 -5.47228 0.841125 72.5771 -5.51507 -0.349283 23.4133 1.13172 3.99799 0.302465 7.73641 -89.8101 11.4001 0.690491 0.307921 -0.270652 0.703376 0.277228 -22.8066 0.566017 0.501203 -2.79392 0.56603 0.501215 88.3782 -32.1123 -109.08 41.7519 -14.3124 -7.47516 4.68269 -29.5582 -12.3394 -26.7419 -1.22856 -6.42745 -89.2768 -54.3639 80.6575 -20.5737 10.2418 -9.1338 1.27576 8.48808 -9.94699 -1.32907 -0.142311 -9.47148 2.80418 -2.80036 -0.291779 -8.07149 -2.66959 -0.986157 
30.6683 101.836 -322.196 177.766 -82.8374 175.325 -172.477 1.8615 90.7722 -25.3104 4.09354 0.221889 68.3753 7.42768 -0.0172526 26.5951 -4.94742 13.9555 173.478 -3.66975 91.09 -19.1288 -4.48671 1.23032 73.5668 -5.96335 -0.585009 23.7214 0.842323 5.1105 0.333012 7.79159 -89.8838 11.2903 0.71688 0.160275 -0.380437 0.723242 0.128563 -22.9168 0.635566 0.368324 -2.90419 0.635572 0.368329 87.8052 -32.0053 -110.214 40.7176 -13.7871 -6.60409 4.47281 -28.8939 -12.7108 -25.3796 -1.22974 -6.19597 -89.1714 -54.5328 80.8398 -20.266 8.90834 -7.43267 1.93358 7.32697 -10.7136 -1.49504 -0.131166 -9.6628 2.66801 -2.42854 0.813665 -7.70542 -2.47155 -1.19907 
30.0364 101.859 -321.322 164.999 -83.1263 161.884 -174.128 9.36251 91.1271 -37.0753 4.82084 1.07259 67.2206 5.28007 -1.46727 25.0512 -5.06666 10.7705 173.582 -4.82392 91.1696 -17.0444 -2.41648 1.17436 73.8361 -6.17149 -0.307516 23.8872 0.819453 4.94767 0.417986 7.8075 -89.8786 11.2585 0.88839 0.153781 -0.412152 0.894297 0.114522 -22.9493 0.801097 0.413688 -2.93665 0.801092 0.413676 88.158 -31.0423 -109.944 41.3276 -12.9751 -6.27541 4.9914 -23.425 -12.5353 -24.9332 -0.543411 -8.30945 -88.9974 -54.1902 81.0251 -20.4007 8.23681 -5.8527 2.11964 5.95751 -11.001 -0.783807 -0.162271 -9.54151 2.23048 -2.47409 1.15855 -7.40422 -2.55264 -1.63875 
30.0727 102.076 -319.968 158.545 -83.555 153.798 -175.36 13.6979 87.6356 -36.4558 5.51255 0.218073 67.7795 4.4173 -5.14281 24.8247 -6.08257 13.5559 172.977 -5.1989 89.6379 -16.4177 -2.59233 0.803332 73.7566 -6.29037 -0.429895 25.0901 0.621325 3.9642 0.67853 7.86191 -89.8077 11.1492 1.43988 0.24224 -0.521006 1.44915 0.178619 -23.0615 1.3005 0.663854 -3.04882 1.3005 0.66385 87.9046 -30.7778 -110.546 39.7259 -13.7866 -7.75665 6.32363 -23.9277 -11.5523 -26.022 -0.589185 -8.09517 -88.8574 -54.037 81.1978 -21.2214 7.08088 -4.16383 2.85433 5.91166 -11.9667 -0.736603 -0.162275 -9.38946 2.54589 -3.03284 2.28432 -7.53466 -3.25322 -2.36223 
30.3983 101.813 -317.703 146.394 -83.6726 140.511 -176.988 15.7477 83.9327 -26.0303 8.7493 -0.916953 64.8768 3.3219 -2.89058 23.4305 -6.31497 11.4219 172.64 -5.64784 88.6811 -16.8317 -1.1657 0.45232 75.1218 -6.73836 -0.246799 25.8444 0.357541 4.12939 0.812019 7.91057 -89.8021 11.0519 1.70822 0.22919 -0.617947 1.71664 0.153754 -23.1608 1.56033 0.732099 -3.14815 1.56035 0.732103 87.5683 -30.6022 -111.273 37.4305 -14.0783 -10.9927 4.0449 -23.6398 -13.8244 -23.3132 -0.473863 -8.9543 -88.5354 -54.2102 81.6896 -22.4974 5.64846 -1.65638 3.71241 6.8625 -12.7042 -1.19938 -0.142296 -9.46449 3.47235 -2.99525 3.94838 -7.11434 -3.50769 -2.61343 
30.8376 101.224 -314.472 139.549 -83.6812 133.428 -178.935 15.4362 81.5589 -11.4971 9.7102 -1.71986 63.5095 3.88073 -0.412073 18.2832 -7.99449 6.31114 172.321 -6.98854 88.3444 -17.4645 -0.421293 0.378535 76.8355 -7.65929 -0.535528 27.8613 -0.399603 5.26453 0.996757 7.96036 -89.9298 10.9551 2.01693 -0.0518616 -0.71428 2.01269 -0.140626 -23.2613 1.93923 0.556941 -3.24867 1.93923 0.556942 87.7934 -30.0937 -111.062 34.9328 -14.2933 -14.3356 3.31028 -23.2811 -15.5128 -23.8535 -0.400367 -9.17702 -89.3102 -55.5079 80.8229 -22.6644 6.78732 0.680225 2.66437 6.0557 -11.8337 -1.48475 -0.122308 -8.49841 3.77473 -2.94597 5.54058 -5.81795 -3.75217 -3.19868 
31.1065 100.309 -309.874 147.157 -84.2909 141.447 -178.987 17.0956 81.0143 -7.77103 6.94244 -2.88956 64.4905 3.7434 -1.52298 16.7897 -9.15328 6.84344 172.971 -10.1486 88.9864 -17.3879 0.422318 -0.469253 78.8581 -8.72114 -0.0374806 29.2352 -0.724762 4.60162 1.14511 8.00742 -89.9899 10.8628 2.28467 -0.194123 -0.806222 2.27391 -0.294548 -23.357 2.23734 0.501847 -3.34437 2.23734 0.50184 86.9204 -30.5786 -112.536 32.7316 -13.8057 -17.1628 2.3854 -26.4661 -16.5623 -21.9567 -0.595507 -9.39428 -89.083 -56.2604 81.2767 -23.7439 6.77639 3.00804 2.22993 7.01575 -10.3102 -1.50377 -0.109556 -6.87982 4.00817 -2.68116 5.1676 -5.33132 -3.44909 -3.15382 
31.5457 99.25 -303.526 -172.549 -85.5967 -177.914 -178.319 17.2811 81.563 -9.84555 2.9152 -2.87963 61.3414 2.04836 -1.92777 15.7712 -9.54879 6.1874 172.61 -13.3178 88.1974 -18.1493 -3.31193 -1.35177 77.7936 -8.24412 0.00832879 34.1508 -1.91862 1.11693 1.42121 7.93318 -89.9159 11.0117 2.86823 -0.107061 -0.656079 2.86073 -0.233305 -23.2154 2.7677 0.760582 -3.20273 2.76769 0.760576 86.5959 -30.6755 -113.116 32.865 -14.8217 -18.8574 2.71298 -28.3189 -16.2432 -21.9455 -0.604943 -10.1487 -89.02 -57.6767 81.6105 -23.6694 6.24036 5.86569 1.92251 5.89733 -9.41198 -3.04095 -0.0738609 -7.32985 4.54099 -2.12999 4.44532 -6.0532 -2.77479 -3.32223 
31.9323 99.4925 -295.961 -140.087 -83.5566 -145.182 -176.247 18.2189 81.8237 -20.5949 0.877046 -3.39152 60.9252 0.25549 -1.14437 13.7405 -10.7131 5.84425 171.467 -15.5 86.0147 -21.3608 -6.7493 -2.39687 72.6782 -6.07706 0.240837 40.0523 -3.80748 0.828104 1.53825 7.87309 -89.8427 11.1311 3.1349 0.00799712 -0.536086 3.13221 -0.130123 -23.0996 2.98741 0.95065 -3.08701 2.98743 0.950654 87.0346 -30.3153 -112.434 36.1297 -15.4765 -17.8781 3.50085 -28.5214 -14.4336 -25.2602 -1.01696 -7.2008 -89.0975 -59.2214 81.7693 -22.3911 6.05723 5.34698 1.1239 5.14119 -5.53775 -3.43988 -0.0660046 -6.99646 4.35709 -1.71081 4.01124 -6.59818 -2.27852 -2.97734 
32.5225 100.117 -287.711 -151.248 -83.0023 -156.361 -175.891 13.8207 80.8451 -25.5329 2.9619 -3.35825 66.8817 4.03179 -0.553383 14.1577 -11.0292 7.21693 169.946 -10.2664 83.5102 -36.9697 -11.5141 -2.33361 60.8837 -0.0423066 -0.230689 38.1655 -3.55603 7.80158 1.2035 7.82966 -89.8026 11.2151 2.48709 0.148388 -0.453496 2.49122 0.0387092 -23.0059 2.32746 0.889403 -2.9932 2.32745 0.889403 87.1683 -30.6256 -112.036 38.9964 -15.3146 -12.7047 3.94606 -27.5061 -13.9935 -25.2876 -0.863074 -7.77313 -89.3539 -57.7491 81.1639 -22.6394 7.41329 1.52418 0.356979 3.98085 -3.5079 -2.65476 -0.0836352 -6.70363 3.10855 -1.69903 2.36938 -6.6382 -1.99962 -1.7684 
32.8594 100.478 -281.326 -158.182 -82.0624 -163.171 -175.951 8.3583 80.5851 -26.1112 3.46541 -3.24577 71.0659 6.71131 -0.165163 15.781 -10.4416 8.38313 171.334 1.80919 82.5929 -57.3837 -15.6741 -3.18558 53.9722 3.47426 1.34699 20.7221 1.44321 6.54983 0.809959 7.93453 -89.8113 11.0042 1.69988 0.212918 -0.665694 1.7076 0.137866 -23.2085 1.55728 0.714078 -3.19586 1.55728 0.714061 86.7767 -31.5163 -112.384 38.6597 -14.0893 -7.90257 3.70775 -27.9291 -14.1548 -25.6593 -0.799075 -8.24208 -89.4297 -56.1201 80.7661 -21.3149 8.70209 -5.70935 0.435977 4.37303 -5.13042 -1.10453 -0.120066 -7.03892 2.35595 -1.28439 1.07692 -5.59747 -1.39958 -1.29572 
33.1208 101.449 -275.615 -163.232 -82.407 -166.451 -176.928 2.65018 81.1371 -22.296 4.76687 -1.64487 71.659 7.88541 1.48937 17.8541 -9.59309 9.75378 175 11.6677 86.7035 -60.4669 -11.6608 -3.5315 63.6844 -2.28294 -1.86018 22.6726 1.12855 5.30402 0.355511 7.95344 -89.9749 10.9684 0.719369 -0.0199305 -0.702356 0.717805 -0.0515814 -23.2393 0.692098 0.197201 -3.22668 0.692105 0.197208 86.7086 -32.5717 -112.042 37.8591 -11.2642 -5.26703 4.56325 -26.0821 -12.3006 -25.5455 -0.87058 -7.31039 -89.8326 -55.2775 80.041 -17.6279 9.15591 -15.523 0.727461 5.37316 -6.03075 -1.04393 -0.128474 -8.58265 0.489719 -0.574606 -1.24608 -5.4533 -0.389575 -0.0864693 
32.7269 102.08 -269.94 -170.942 -82.4543 -170.458 -175.484 -2.19179 85.4669 -20.5333 6.11719 -0.559301 74.6665 9.21416 0.404606 16.5759 -10.0075 8.65175 178.241 16.2812 92.2971 -45.1569 -3.55228 -2.50629 65.7377 -3.32373 -1.09021 20.3982 2.13769 3.64741 -0.0128602 8.04852 -90.3043 10.7765 -0.165941 -0.588693 -0.894655 -0.191694 -0.580826 -23.4283 0.0186424 -0.61136 -3.41569 0.0186439 -0.611358 87.437 -32.9581 -110.513 38.0214 -10.1712 -2.57521 3.96696 -24.328 -13.1579 -24.1437 -0.757564 -7.4671 -89.6401 -51.7745 79.6286 -17.3431 8.72651 -23.7598 1.96183 5.42654 -8.21781 -3.77176 -0.00446571 -11.8528 -0.601814 -0.29149 -5.30271 -5.46877 0.374414 1.64581 
32.5406 101.468 -263.287 161.29 -83.0896 163.074 -174.351 -5.41934 87.7135 -21.1727 8.74069 0.175625 79.3738 11.382 -0.752649 15.7126 -10.173 7.61132 178.33 16.0705 93.7068 -19.471 -6.55518 -0.644184 61.4896 -1.99189 -1.49183 23.7579 1.12697 3.40959 -0.583376 8.07963 -90.3758 10.7106 -1.33486 -0.624789 -0.959755 -1.36107 -0.565433 -23.4975 -1.08537 -0.997102 -3.48488 -1.08538 -0.997109 87.2584 -34.4124 -110.248 38.051 -7.94205 0.762574 2.90334 -25.1149 -15.7971 -24.7364 -0.922965 -6.74771 -90.3405 -49.978 78.2145 -16.2133 7.8739 -29.2304 3.43872 6.82589 -12.1201 -1.15507 -0.181579 -12.8813 0.082054 -0.612121 -8.66743 -5.19849 0.539833 2.64378 
32.37 99.7659 -255.237 156.606 -82.9487 159.049 -172.373 -12.0275 89.9825 -18.8757 11.5931 -0.166137 82.1766 13.7847 -0.463739 20.6545 -8.00618 10.6292 178.001 16.7037 95.5496 -7.31227 -3.9178 1.62071 63.6152 -2.37816 -0.0698188 24.9476 0.876418 2.67555 -0.736736 8.08286 -90.3953 10.7039 -1.64923 -0.63474 -0.966146 -1.67556 -0.561522 -23.5064 -1.38221 -1.10111 -3.49372 -1.38221 -1.10111 86.5896 -35.522 -111.012 38.9164 -6.62025 3.63967 3.24314 -25.7327 -13.4524 -22.4767 -0.610932 -9.0013 -90.357 -50.3138 78.264 -15.7863 7.75368 -32.8563 4.01622 7.77168 -13.4105 0.655819 -0.289961 -11.9042 0.113698 -0.920517 -9.7525 -5.36619 0.388601 2.45502 
32.3604 98.0903 -245.951 150.287 -81.8749 153.527 -170.489 -18.5385 92.688 -18.6056 9.76582 0.637502 85.2006 14.9422 -4.50853 23.7354 -6.54741 12.5712 178.297 17.3431 97.2088 -12.4454 -6.15462 1.89091 59.8749 -0.358469 -1.43929 21.797 1.73845 3.40828 -0.882959 8.0887 -90.4999 10.6902 -1.98859 -0.812159 -0.979443 -2.02241 -0.723825 -23.5216 -1.65258 -1.37235 -3.50894 -1.65257 -1.37235 86.9323 -36.5833 -109.973 39.2212 -6.12938 4.51234 4.98776 -27.2962 -9.94706 -21.0377 -0.810525 -8.47397 -90.8711 -51.1534 77.6884 -16.2443 8.91922 -32.6499 3.28891 9.60232 -11.8082 0.635715 -0.232948 -9.99307 1.52717 -1.13853 -9.24061 -6.63387 0.209045 1.81382 
